<svg width="327" height="47" viewBox="0 0 327 47" fill="none" xmlns="http://www.w3.org/2000/svg">
<path d="M15.6178 9.328H0.19375C0.19375 3.90933 2.64708 1.2 7.55375 1.2H40.3858C40.3858 6.61867 37.9324 9.328 33.0258 9.328H25.0258V39.792C25.0258 42.0107 24.2151 43.696 22.5938 44.848C21.0151 46 18.6898 46.576 15.6178 46.576V9.328ZM45.5503 46.576C43.4596 46.576 41.4969 46.1707 39.6623 45.36C37.8703 44.5067 36.4196 43.2907 35.3103 41.712C34.2009 40.0907 33.6463 38.1493 33.6463 35.888C33.6463 33.6267 34.2436 31.6853 35.4383 30.064C36.6329 28.4 38.2116 27.1413 40.1743 26.288C42.1796 25.4347 44.3556 25.008 46.7023 25.008C48.6649 25.008 50.3929 25.3067 51.8863 25.904C53.4223 26.5013 54.8516 27.376 56.1743 28.528L56.4943 28.144C55.5983 27.3333 54.8943 26.7573 54.3823 26.416V25.584C54.3823 23.9627 53.7849 22.6827 52.5903 21.744C51.4383 20.7627 49.7956 20.272 47.6623 20.272C45.7849 20.272 44.1209 20.6133 42.6703 21.296C41.2196 21.9787 40.0463 22.9813 39.1503 24.304C38.1263 24.048 37.2516 23.5787 36.5263 22.896C35.8436 22.1707 35.5023 21.3813 35.5023 20.528C35.5023 19.2053 36.0783 18.0107 37.2303 16.944C38.3823 15.8347 39.9396 14.9813 41.9023 14.384C43.9076 13.744 46.1049 13.424 48.4943 13.424C53.1449 13.424 56.7289 14.4907 59.2463 16.624C61.7636 18.7573 63.0223 21.6587 63.0223 25.328V40.88C63.0223 42.8853 62.3609 44.336 61.0383 45.232C59.7583 46.128 57.7103 46.576 54.8943 46.576V44.08C55.5343 43.4827 56.0463 42.9493 56.4303 42.48L56.1103 42.16C54.7023 43.6107 53.2303 44.72 51.6943 45.488C50.1583 46.2133 48.1103 46.576 45.5503 46.576ZM47.9823 40.304C50.0303 40.304 51.6303 39.92 52.7823 39.152C53.9343 38.384 54.5103 37.2747 54.5103 35.824C54.5103 34.416 53.9129 33.3067 52.7183 32.496C51.5663 31.6853 49.9876 31.28 47.9823 31.28C46.1903 31.28 44.7609 31.6853 43.6943 32.496C42.6703 33.3067 42.1583 34.416 42.1583 35.824C42.1583 37.2747 42.6703 38.384 43.6943 39.152C44.7609 39.92 46.1903 40.304 47.9823 40.304ZM80.6188 46.576C76.9068 46.576 74.1121 45.5307 72.2348 43.44C70.3574 41.3067 69.4188 38.6187 69.4188 35.376V5.744C69.4188 3.90933 70.1228 2.608 71.5308 1.84C72.9814 1.02933 75.2001 0.623997 78.1868 0.623997V35.056C78.1868 36.464 78.5068 37.488 79.1468 38.128C79.7868 38.7253 80.7894 39.024 82.1548 39.024C83.7761 39.024 85.3761 38.5973 86.9548 37.744C87.4241 38.1707 87.7868 38.704 88.0428 39.344C88.3414 39.984 88.4908 40.624 88.4908 41.264C88.4908 42.6293 87.8081 43.8667 86.4428 44.976C85.1201 46.0427 83.1788 46.576 80.6188 46.576ZM123.246 43.952C122.307 45.7013 120.792 46.576 118.702 46.576C117.806 46.576 117.016 46.384 116.334 46C115.651 45.5733 115.011 44.9333 114.414 44.08L106.542 32.816L102.318 36.784V41.456C102.318 43.2907 101.592 44.6133 100.142 45.424C98.6911 46.192 96.5151 46.576 93.6138 46.576V7.28C93.6138 2.84266 96.5578 0.623997 102.446 0.623997V26.928L116.846 13.424C119.278 15.3013 120.494 16.7947 120.494 17.904C120.494 18.5867 120.302 19.2053 119.918 19.76C119.576 20.272 119 20.912 118.19 21.68L111.598 27.952L123.246 43.952ZM134.372 10.992C132.751 10.992 131.386 10.5227 130.276 9.584C129.21 8.60267 128.676 7.344 128.676 5.808C128.676 4.272 129.21 3.03466 130.276 2.096C131.386 1.11466 132.751 0.623997 134.372 0.623997C135.994 0.623997 137.338 1.11466 138.404 2.096C139.514 3.03466 140.068 4.272 140.068 5.808C140.068 7.344 139.514 8.60267 138.404 9.584C137.338 10.5227 135.994 10.992 134.372 10.992ZM129.956 18.544C129.956 16.7093 130.682 15.408 132.132 14.64C133.583 13.8293 135.78 13.424 138.724 13.424V41.456C138.724 43.2907 137.999 44.6133 136.548 45.424C135.098 46.192 132.9 46.576 129.956 46.576V18.544ZM163.614 7.984C163.614 5.72267 164.382 3.93067 165.918 2.608C167.454 1.28533 169.523 0.623997 172.126 0.623997L192.67 33.136L193.374 32.56L190.494 27.76V0.623997C193.523 0.623997 195.827 1.2 197.406 2.352C198.984 3.504 199.774 5.18933 199.774 7.408V40.368C199.774 41.4347 199.432 42.4587 198.75 43.44C198.11 44.3787 197.235 45.1467 196.126 45.744C195.016 46.2987 193.843 46.576 192.606 46.576L170.718 11.952L170.014 12.528L172.894 17.328V39.792C172.894 42.0107 172.104 43.696 170.526 44.848C168.947 46 166.643 46.576 163.614 46.576V7.984ZM219 46.576C216.184 46.576 213.624 46.064 211.32 45.04C209.016 44.016 207.203 42.608 205.88 40.816C204.558 38.9813 203.896 36.912 203.896 34.608V26.096C203.896 23.7493 204.536 21.616 205.816 19.696C207.096 17.7333 208.888 16.1973 211.192 15.088C213.496 13.9787 216.099 13.424 219 13.424C221.902 13.424 224.504 13.9787 226.808 15.088C229.112 16.1973 230.904 17.7333 232.184 19.696C233.464 21.616 234.104 23.7493 234.104 26.096V34.608C234.104 36.912 233.443 38.9813 232.12 40.816C230.798 42.608 228.984 44.016 226.68 45.04C224.376 46.064 221.816 46.576 219 46.576ZM219 39.024C221.006 39.024 222.563 38.576 223.672 37.68C224.782 36.784 225.336 35.5467 225.336 33.968V26.544C225.336 24.88 224.76 23.536 223.608 22.512C222.499 21.488 220.963 20.976 219 20.976C217.038 20.976 215.48 21.488 214.328 22.512C213.219 23.536 212.664 24.88 212.664 26.544V33.968C212.664 35.5467 213.219 36.784 214.328 37.68C215.438 38.576 216.995 39.024 219 39.024ZM253.053 46.576C249.426 46.576 246.759 45.5307 245.053 43.44C243.346 41.3493 242.493 38.6613 242.493 35.376V20.464H235.709C235.709 18.288 236.114 16.6667 236.925 15.6C237.735 14.5333 238.802 14 240.125 14H242.621V8.944C242.621 7.10933 243.325 5.808 244.733 5.04C246.141 4.22933 248.274 3.824 251.133 3.824V14H259.645C259.645 16.304 259.218 17.968 258.365 18.992C257.511 19.9733 256.103 20.464 254.141 20.464H251.261V35.056C251.261 36.464 251.538 37.488 252.093 38.128C252.647 38.7253 253.607 39.024 254.973 39.024C256.466 39.024 258.002 38.5973 259.581 37.744C260.05 38.1707 260.413 38.704 260.669 39.344C260.967 39.984 261.117 40.624 261.117 41.264C261.117 42.1173 260.818 42.9493 260.221 43.76C259.623 44.5707 258.706 45.2533 257.469 45.808C256.274 46.32 254.802 46.576 253.053 46.576ZM278.95 46.576C276.304 46.576 273.851 46.0427 271.59 44.976C269.371 43.9093 267.6 42.4587 266.278 40.624C264.955 38.7893 264.294 36.7413 264.294 34.48V26.288C264.294 23.8987 264.955 21.7227 266.278 19.76C267.643 17.7547 269.456 16.1973 271.718 15.088C273.979 13.9787 276.411 13.424 279.014 13.424C281.574 13.424 283.92 13.9573 286.054 15.024C288.23 16.048 289.936 17.52 291.174 19.44C292.411 21.3173 293.03 23.4507 293.03 25.84V29.296C293.03 30.32 292.646 31.1947 291.878 31.92C291.11 32.6027 290.128 32.944 288.934 32.944H272.806V33.84C272.806 35.5467 273.318 36.9547 274.342 38.064C275.408 39.1307 276.966 39.664 279.014 39.664C281.019 39.664 282.491 39.2373 283.43 38.384C284.368 37.488 284.838 36.3787 284.838 35.056C285.691 34.9707 286.331 34.928 286.758 34.928C288.507 34.928 289.851 35.2907 290.79 36.016C291.728 36.7413 292.198 37.808 292.198 39.216C292.198 40.368 291.622 41.52 290.47 42.672C289.318 43.824 287.718 44.7627 285.67 45.488C283.664 46.2133 281.424 46.576 278.95 46.576ZM285.094 26.736V25.84C285.094 24.1333 284.518 22.7893 283.366 21.808C282.256 20.784 280.784 20.272 278.95 20.272C277.115 20.272 275.622 20.784 274.47 21.808C273.36 22.7893 272.806 24.1333 272.806 25.84V26.736H285.094ZM312.305 46.576C307.953 46.576 304.519 45.8507 302.001 44.4C299.484 42.9067 298.225 40.9227 298.225 38.448C298.225 37.3387 298.695 36.4 299.633 35.632C300.615 34.864 302.172 34.48 304.305 34.48C304.647 36.1867 305.5 37.5307 306.865 38.512C308.231 39.4507 309.831 39.92 311.665 39.92C313.799 39.92 315.441 39.664 316.593 39.152C317.788 38.64 318.385 37.8933 318.385 36.912C318.385 36.0587 317.916 35.312 316.977 34.672C316.039 34.032 314.161 33.3707 311.345 32.688C308.06 31.92 305.5 31.152 303.665 30.384C301.873 29.5733 300.551 28.5707 299.697 27.376C298.844 26.1813 298.417 24.6027 298.417 22.64C298.417 19.8667 299.569 17.648 301.873 15.984C304.22 14.2773 307.484 13.424 311.665 13.424C315.761 13.424 319.089 14.128 321.649 15.536C324.209 16.944 325.489 18.8213 325.489 21.168C325.489 22.3627 325.041 23.2373 324.145 23.792C323.249 24.304 321.756 24.5813 319.665 24.624C319.111 23.0027 318.257 21.808 317.105 21.04C315.996 20.2293 314.396 19.824 312.305 19.824C310.812 19.824 309.489 20.08 308.337 20.592C307.185 21.104 306.609 21.7227 306.609 22.448C306.609 23.2587 307.079 23.8987 308.017 24.368C308.999 24.8373 310.62 25.3067 312.881 25.776C317.788 26.8427 321.308 28.2507 323.441 30C325.617 31.7493 326.705 34.1173 326.705 37.104C326.705 38.9387 326.129 40.5813 324.977 42.032C323.825 43.4827 322.161 44.6133 319.985 45.424C317.809 46.192 315.249 46.576 312.305 46.576Z" fill="url(#paint0_linear_6107_470)"/>
<defs>
<linearGradient id="paint0_linear_6107_470" x1="-8" y1="-21" x2="335" y2="-21" gradientUnits="userSpaceOnUse">
<stop stop-color="#859398"/>
<stop offset="0.335" stop-color="#D1F593"/>
<stop offset="0.979047" stop-color="#859398"/>
</linearGradient>
</defs>
</svg>
